<svg width="127" height="58" viewBox="0 0 127 58" fill="none" xmlns="http://www.w3.org/2000/svg">
<g id="Layer 2">
<g id="Layer 1">
<path id="Vector" opacity="0.5" d="M107.001 43.1072C106.997 47.0174 105.442 50.7664 102.678 53.5313C99.9126 56.2962 96.1636 57.851 92.2535 57.8543H35.5828C32.6681 57.8525 29.8194 56.9862 27.3971 55.365C24.9748 53.7439 23.0878 51.4407 21.9747 48.7469C20.8616 46.0531 20.5724 43.0897 21.1438 40.2315C21.7152 37.3733 23.1215 34.7488 25.1847 32.69C26.2324 31.6404 27.435 30.7578 28.7505 30.073C28.9479 31.0345 29.158 32.0215 29.3872 33.0211C29.5464 33.7789 29.7184 34.5557 29.8903 35.3516H98.8438C98.9839 34.6194 99.1176 33.8808 99.2513 33.1549C99.4105 32.2379 99.5761 31.321 99.7289 30.4041C101.943 31.704 103.779 33.5601 105.055 35.7884C106.33 38.0167 107.001 40.5397 107.001 43.1072Z" fill="#F6F0E2"/>
<path id="Vector_2" opacity="0.5" d="M107.778 39.9044C107.778 42.6042 106.122 45.0621 103.454 46.8323C100.34 48.7728 96.731 49.7702 93.0625 49.704H36.3919C28.2542 49.704 21.6511 45.3168 21.6511 39.9044C21.6511 37.1983 23.3003 34.7468 25.9746 32.9766C27.079 32.2502 28.2707 31.6662 29.5213 31.2383C29.7187 31.875 29.9289 32.5118 30.1581 33.1995L30.6675 34.7468H99.621C99.7611 34.2628 99.8948 33.7725 100.022 33.2822C100.188 32.6455 100.353 32.0661 100.506 31.4611C104.861 33.1613 107.778 36.3068 107.778 39.9044Z" fill="#FFE5B3"/>
<path id="Vector_3" opacity="0.5" d="M90.5803 30.8436C90.4593 31.5376 90.332 32.2381 90.2046 32.9321C90.1027 33.4861 90.0008 34.0464 89.8926 34.6004H36.393C36.2656 33.9637 36.1319 33.4097 36.0045 32.8302C35.8326 32.0725 35.6734 31.3211 35.5142 30.5953C33.1583 19.4076 32.426 11.913 37.1698 8.00977C40.9266 4.91517 47.4596 4.635 52.0506 6.18867C57.9915 8.19443 58.8001 12.5944 63.2128 12.5562C67.6255 12.518 68.0585 8.2772 74.3687 6.18867C78.1191 4.94701 83.7734 4.67321 87.3965 7.09922C93.0636 10.907 92.3759 20.5283 90.5803 30.8436Z" fill="#FFE5B3"/>
<path id="Vector_4" d="M93.8513 29.6209C93.7239 30.3722 93.5902 31.1236 93.4565 31.875C93.3482 32.4735 93.24 33.0784 93.1254 33.677H36.5247C36.3847 33.0402 36.2446 32.4035 36.1109 31.7667C35.9326 30.9453 35.7607 30.1366 35.5951 29.3471C33.099 17.2488 32.3286 9.14939 37.3462 4.93411C41.3195 1.58481 48.2282 1.28554 53.0802 2.96019C59.3649 5.09967 60.2182 9.88165 64.8855 9.81798C69.5529 9.7543 69.9795 5.18881 76.6845 2.92835C80.6451 1.60392 86.6305 1.29191 90.4574 3.91531C96.4619 8.03508 95.7488 18.4332 93.8513 29.6209Z" stroke="#4D2C19" stroke-width="3" stroke-miterlimit="10"/>
<path id="Vector_5" d="M60.4617 7.97144C62.8327 9.73282 65.4943 11.0647 68.3255 11.9065C71.1964 12.7559 74.1955 13.0879 77.1827 12.8871" stroke="#4D2C19" stroke-width="3.18374" stroke-miterlimit="10" stroke-linecap="round"/>
<path id="Vector_6" d="M107.776 41.3559C107.766 45.2561 106.213 48.9938 103.456 51.7522C100.698 54.5107 96.9614 56.0657 93.0612 56.0775H36.3905C33.4731 56.0819 30.62 55.2202 28.1929 53.6014C25.7657 51.9827 23.8737 49.6799 22.7566 46.9848C21.6396 44.2897 21.3478 41.3236 21.9181 38.4624C22.4885 35.6013 23.8954 32.9739 25.9606 30.9132C26.9747 29.893 32.827 25.7465 34.3451 24.8931C34.4031 24.8605 34.473 24.8944 34.4862 24.9596C34.704 26.0388 35.2402 28.872 35.46 29.8306C35.6204 30.5709 36.1822 32.8847 36.3733 33.7517C36.3835 33.7977 36.4242 33.8306 36.4712 33.8306H93.0435C93.0915 33.8306 93.1326 33.7969 93.1419 33.7498C93.3042 32.9277 93.8369 30.5318 93.96 29.8306C94.1172 28.9595 94.289 27.4123 94.4368 26.4736C94.4477 26.4044 94.5221 26.367 94.5831 26.4017C96.9183 27.7298 103.502 30.3965 105.836 34.0231C107.112 36.2561 107.781 38.7841 107.776 41.3559Z" stroke="#4D2C19" stroke-width="3" stroke-miterlimit="10" stroke-linecap="round"/>
</g>
</g>
</svg>
