<svg xmlns="http://www.w3.org/2000/svg" width="79" height="80" viewBox="0 0 79 80" fill="none">
    <path opacity="0.5" d="M73.7669 35.6124C73.7577 43.2779 71.4 50.7565 67.0113 57.0413C62.6226 63.3262 56.4136 68.1155 49.2204 70.7644C42.0271 73.4134 34.1949 73.7948 26.7783 71.8572C19.3617 69.9197 12.7168 65.7563 7.73827 59.9276C2.70573 51.8981 0.898958 42.2614 2.6811 32.9542C4.46325 23.6471 9.70221 15.3595 17.345 9.75712C24.9878 4.15475 34.4679 1.65285 43.8799 2.75436C53.2919 3.85588 61.9381 8.47912 68.0808 15.6949C71.8207 21.6631 73.7923 28.5693 73.7669 35.6124Z" fill="#FFE5B3"/>
    <path d="M76.9906 40.0101C76.9893 48.8138 73.8903 57.3362 68.2365 64.0845C62.5826 70.8327 54.7346 75.3764 46.0672 76.9194C37.3998 78.4624 28.4659 76.9064 20.8305 72.524C13.1951 68.1417 7.3452 61.2124 4.30567 52.9501C1.26613 44.6878 1.23079 35.6195 4.20583 27.3338C7.18087 19.048 12.9766 12.0733 20.5776 7.63153C28.1786 3.18977 37.1001 1.56425 45.7793 3.03968C54.4584 4.51511 62.3416 8.9974 68.0479 15.7014C73.8213 22.485 76.9914 31.1023 76.9906 40.0101Z" stroke="#4D2C19" stroke-width="3.20527" stroke-miterlimit="10"/>
  </svg>