<svg width="56" height="57" viewBox="0 0 56 57" fill="none" xmlns="http://www.w3.org/2000/svg">
    <path opacity=".5" d="m51.278 19.039-1.78 6.521q-.298 1.017-.752 1.973c-1.36 2.973-1.581 6.113-1.694 9.29-.156 4.393-.737 8.737-2.457 12.904a12.4 12.4 0 0 1-1.355 2.446c-2.36 3.328-6.99 3.468-9.403.156a17.8 17.8 0 0 1-2.21-4.72c-.763-2.237-1.258-4.56-1.93-6.823a8.5 8.5 0 0 0-1-2.113c-1.322-2.048-4.054-2.274-5.49-.296a20 20 0 0 0-2.284 4.688c-1.038 2.732-1.898 5.527-2.898 8.275a5.7 5.7 0 0 1-1.107 1.682 4.878 4.878 0 0 1-7.414.167 12.96 12.96 0 0 1-3.226-6.666 96 96 0 0 1-1.495-10.925 29 29 0 0 0-1.564-7.764c-1.076-2.957-2.15-5.957-2.586-9.021C-.1 13.528 2.53 9.458 7.149 6.528c2.613-1.661 5.564-1.457 8.473-.688 1.49.387 2.968.8 4.42 1.29a17.54 17.54 0 0 0 11.29.065 75 75 0 0 1 5.575-1.516 10.43 10.43 0 0 1 9.462 2.28c3.231 2.677 4.925 5.972 4.909 11.08" fill="#FFE5B3"/>
    <path d="M23.972 4.523c1.108.25 2.189.61 3.226 1.075a23.6 23.6 0 0 1 3.516 2.06c1.36.822 3.618 1.537 7.479.832" stroke="#4D2C19" stroke-width="2.688" stroke-miterlimit="10" stroke-linecap="round"/>
    <path d="M53.967 16.861a5304 5304 0 0 1-1.78 6.99 15 15 0 0 1-.752 2.15c-1.36 3.226-1.581 6.575-1.694 10-.156 4.72-.736 9.398-2.457 13.85a13.5 13.5 0 0 1-1.355 2.629c-2.36 3.586-6.989 3.73-9.403.172a19.8 19.8 0 0 1-2.21-5.081c-.763-2.409-1.258-4.903-1.93-7.344a9.5 9.5 0 0 0-1-2.269c-1.322-2.204-4.053-2.446-5.489-.317a22.3 22.3 0 0 0-2.285 5.043c-1.037 2.94-1.898 5.946-2.898 8.898a6.2 6.2 0 0 1-1.107 1.812c-2.006 2.505-5.296 2.59-7.414.182a14.4 14.4 0 0 1-3.226-7.172 111 111 0 0 1-1.495-11.752 33.2 33.2 0 0 0-1.564-8.355c-1.075-3.183-2.15-6.414-2.586-9.71C2.59 10.904 5.22 6.523 9.838 3.372c2.613-1.785 5.564-1.564 8.473-.742 1.49.42 2.968.86 4.42 1.387a16.34 16.34 0 0 0 11.29.07 63 63 0 0 1 5.575-1.613c3.575-.892 6.715 0 9.462 2.452 3.231 2.892 4.925 6.43 4.909 11.935Z" stroke="#4D2C19" stroke-width="3" stroke-miterlimit="10" stroke-linecap="round"/>
  </svg>
  