<svg width="112" height="75" viewBox="0 0 125 75" fill="none" xmlns="http://www.w3.org/2000/svg"><path opacity=".5" d="m105.796 28.816-1.624 5.912a12 12 0 0 1-.687 1.788c-1.241 2.696-1.438 5.541-1.546 8.422-.142 3.981-.672 7.92-2.237 11.696a11.7 11.7 0 0 1-1.237 2.218c-2.159 3.016-6.379 3.143-8.587.14a16 16 0 0 1-2.017-4.278c-.697-2.027-1.143-4.133-1.761-6.184a7.5 7.5 0 0 0-.913-1.925c-1.207-1.857-3.695-2.062-5.01-.269a18 18 0 0 0-2.08 4.25c-.953 2.476-1.738 5.01-2.65 7.5a5.2 5.2 0 0 1-1.011 1.526 4.475 4.475 0 0 1-6.767.151 11.67 11.67 0 0 1-2.944-6.043 86 86 0 0 1-1.364-9.903 26.3 26.3 0 0 0-1.433-7.037c-.952-2.68-1.963-5.4-2.36-8.178-.668-4.79 1.732-8.48 5.947-11.136 2.385-1.506 5.079-1.32 7.738-.624a60 60 0 0 1 4.029 1.17 16.1 16.1 0 0 0 10.304.058 69 69 0 0 1 5.089-1.374c1.5-.38 3.07-.39 4.576-.03a9.5 9.5 0 0 1 4.06 2.096c2.954 2.437 4.5 5.425 4.485 10.054" fill="#FFE5B3"/><path d="M110.251 26.843a5293 5293 0 0 1-1.625 6.335 13.4 13.4 0 0 1-.687 1.95c-1.241 2.924-1.437 5.96-1.545 9.064-.143 4.28-.673 8.519-2.238 12.554a12.8 12.8 0 0 1-1.236 2.383c-2.159 3.25-6.38 3.383-8.588.156a18 18 0 0 1-2.016-4.605c-.697-2.184-1.144-4.445-1.762-6.657a8.4 8.4 0 0 0-.913-2.057c-1.207-1.998-3.695-2.217-5.01-.287a20 20 0 0 0-2.08 4.57c-.952 2.691-1.737 5.39-2.626 8.052a5.6 5.6 0 0 1-1.01 1.642c-1.826 2.271-4.834 2.35-6.767.166a12.94 12.94 0 0 1-2.944-6.501 99 99 0 0 1-1.364-10.654 30 30 0 0 0-1.468-7.558c-.951-2.886-1.962-5.814-2.36-8.802-.667-5.151 1.732-9.123 5.947-11.979 2.385-1.637 5.06-1.418 7.739-.663 1.354.38 2.708.78 4.028 1.258a15 15 0 0 0 10.305.063 58 58 0 0 1 5.089-1.462c3.268-.809 6.128 0 8.636 2.222 2.964 2.613 4.509 5.82 4.495 10.81Z" stroke="#4D2C19" stroke-width="3.509" stroke-miterlimit="10" stroke-linecap="round"/><path opacity=".5" d="M56.573 29.949c-.279 1.235-.8 3.619-1.36 5.996a12.4 12.4 0 0 1-.614 1.823c-1.122 2.758-1.195 5.614-1.177 8.501.035 3.987-.326 7.954-1.728 11.786a11.6 11.6 0 0 1-1.139 2.278c-2.02 3.125-6.231 3.457-8.555.561a15.9 15.9 0 0 1-2.193-4.181c-.786-2-1.324-4.08-2.028-6.105a7.4 7.4 0 0 0-.994-1.868c-1.282-1.799-3.774-1.885-5.006-.025a18 18 0 0 0-1.891 4.35c-.844 2.524-1.517 5.096-2.32 7.63a5.3 5.3 0 0 1-.942 1.58 4.47 4.47 0 0 1-5.142 1.506 4.4 4.4 0 0 1-1.587-1.032 11.67 11.67 0 0 1-3.211-5.906 87 87 0 0 1-1.788-9.84 26.3 26.3 0 0 0-1.751-6.957c-1.069-2.636-2.205-5.31-2.71-8.07-.845-4.761 1.385-8.582 5.473-11.443 2.311-1.621 5.005-1.567 7.69-1 1.366.285 2.733.593 4.07.975 3.372.984 6.983.828 10.271-.444a68 68 0 0 1 5.013-1.622 9.5 9.5 0 0 1 4.563-.252 9.44 9.44 0 0 1 4.14 1.901c3.072 2.307 4.744 5.213 4.916 9.858" fill="#FFE5B3" fill-opacity=".898"/><path d="M60.679 26.852c-.274 1.323-.794 3.886-1.344 6.437a14 14 0 0 1-.605 1.965c-1.121 2.965-1.176 6.03-1.147 9.142.04 4.288-.303 8.554-1.693 12.672-.288.85-.666 1.67-1.13 2.44-2.024 3.364-6.221 3.7-8.553.573a17.4 17.4 0 0 1-2.21-4.504c-.795-2.152-1.34-4.392-2.051-6.576a8.2 8.2 0 0 0-.998-2.012c-1.29-1.94-3.78-2.044-5.007-.047a20 20 0 0 0-1.88 4.675c-.826 2.729-1.494 5.478-2.291 8.2a5.7 5.7 0 0 1-.949 1.673c-1.726 2.359-4.735 2.594-6.736.513a13 13 0 0 1-3.227-6.364 99 99 0 0 1-1.817-10.588 30 30 0 0 0-1.756-7.506c-1.074-2.841-2.22-5.72-2.747-8.684-.886-5.116 1.334-9.211 5.412-12.275 2.31-1.74 5.004-1.668 7.684-1.06 1.375.332 2.746.665 4.07 1.065a14.98 14.98 0 0 0 10.275-.439 61 61 0 0 1 5.011-1.723c3.224-.972 6.113-.305 8.71 1.798 3.097 2.5 4.776 5.633 4.979 10.625Z" stroke="#4D2C19" stroke-width="3.509" stroke-miterlimit="10" stroke-linecap="round"/></svg>