<svg width="23" height="24" viewBox="0 0 23 24" fill="none" xmlns="http://www.w3.org/2000/svg">
<g id="Frame 52444">
<path id="Ellipse 29" d="M20.7984 8.15288C20.7984 11.7167 17.7141 14.6058 13.9094 14.6058C12.0319 14.6058 10.3298 13.9022 9.08716 12.7612C7.81176 11.59 7.02046 9.95802 7.02046 8.15288C7.02046 4.58903 10.1048 1.69995 13.9094 1.69995C17.7141 1.69995 20.7984 4.58903 20.7984 8.15288Z" fill="#FFEFE2"/>
<path id="Vector 94" d="M0.518659 21.2515C0.0500301 21.7201 0.0500301 22.4799 0.518659 22.9486C0.987289 23.4172 1.74709 23.4172 2.21572 22.9486L0.518659 21.2515ZM8.31866 13.4515L0.518659 21.2515L2.21572 22.9486L10.0157 15.1486L8.31866 13.4515Z" fill="#EA7D28"/>
<path id="Ellipse 30" d="M20.8 8.56617C20.8 12.3529 17.7141 15.4323 13.8953 15.4323C12.0112 15.4323 10.3063 14.6836 9.06003 13.4677C7.78084 12.2196 6.99061 10.4852 6.99061 8.56617C6.99061 4.77947 10.0766 1.7 13.8953 1.7C17.7141 1.7 20.8 4.77947 20.8 8.56617Z" stroke="#EA7D28" stroke-width="2.4"/>
</g>
</svg>
