<svg xmlns="http://www.w3.org/2000/svg" width="64" height="84" viewBox="0 0 64 84" fill="none">
    <path opacity="0.5" d="M58.1455 32.3992C58.1446 38.4475 56.1887 44.3335 52.5693 49.1793C48.95 54.0252 43.8612 57.5713 38.0619 59.2888L30.0973 29.8287C30.0752 29.7428 30.0252 29.6668 29.9551 29.6125C29.885 29.5582 29.7989 29.5287 29.7102 29.5287C29.6216 29.5287 29.5354 29.5582 29.4654 29.6125C29.3953 29.6668 29.3452 29.7428 29.3231 29.8287C26.7695 39.6116 24.2124 49.3793 21.652 59.1319C16.713 57.5697 12.3033 54.6698 8.91219 50.7539C5.52107 46.8379 3.28108 42.0591 2.44074 36.9475C1.60039 31.8359 2.19255 26.5915 4.15151 21.796C6.11047 17.0005 9.35965 12.8414 13.5386 9.78024C17.7175 6.71905 22.6628 4.8754 27.8257 4.45385C32.9887 4.03229 38.1676 5.0493 42.7877 7.39205C47.4079 9.7348 51.2887 13.3117 53.9996 17.7259C56.7105 22.1401 58.1456 27.219 58.1455 32.3992Z" fill="#FFE5B3"/>
    <path opacity="0.5" d="M20.772 19.9817L29.2527 28.4119C29.3237 28.4832 29.4081 28.5397 29.501 28.5783C29.5939 28.6169 29.6935 28.6368 29.7942 28.6368C29.8948 28.6368 29.9944 28.6169 30.0873 28.5783C30.1802 28.5397 30.2646 28.4832 30.3356 28.4119L38.7506 19.9766C39.2566 19.4706 34.5709 14.8153 29.5007 15.043C24.0357 15.2909 21.0806 19.5212 20.772 19.9817Z" fill="#FFE5B3"/>
    <path opacity="0.5" d="M39.3974 66.9699L30.6535 79.1497C30.5483 79.2959 30.4091 79.4145 30.248 79.4951C30.0868 79.5757 29.9085 79.616 29.7283 79.6125C29.5482 79.6091 29.3716 79.5619 29.2137 79.4751C29.0557 79.3883 28.9213 79.2645 28.8218 79.1142L20.3967 66.4993C20.2452 66.271 20.1435 66.0133 20.0982 65.743C20.0529 65.4728 20.0649 65.196 20.1335 64.9307C20.6429 62.9977 21.1489 61.0648 21.6516 59.1318C24.212 49.3792 26.769 39.6115 29.3227 29.8285C29.3448 29.7427 29.3949 29.6666 29.4649 29.6123C29.535 29.558 29.6212 29.5286 29.7098 29.5286C29.7985 29.5286 29.8846 29.558 29.9547 29.6123C30.0247 29.6666 30.0748 29.7427 30.0969 29.8285L38.0615 59.2735C38.608 61.2975 39.1545 63.3216 39.6959 65.3102C39.7752 65.5914 39.7895 65.8869 39.7378 66.1744C39.686 66.462 39.5697 66.734 39.3974 66.9699Z" fill="#FFCC66"/>
    <path opacity="0.5" d="M40.2684 66.8082L30.806 80.005C30.6911 80.1628 30.54 80.2905 30.3653 80.3775C30.1906 80.4645 29.9975 80.5081 29.8024 80.5046C29.6073 80.5011 29.4159 80.4507 29.2445 80.3575C29.073 80.2644 28.9265 80.1313 28.8173 79.9696L19.7091 66.3072C19.5447 66.0607 19.4344 65.7822 19.3856 65.49C19.3368 65.1978 19.3504 64.8986 19.4258 64.6121C19.9723 62.5172 20.5238 60.4223 21.0652 58.3274C23.8348 47.7618 26.6044 37.1811 29.3739 26.5852C29.399 26.4929 29.4536 26.4115 29.5296 26.3534C29.6055 26.2954 29.6984 26.2639 29.7939 26.2639C29.8895 26.2639 29.9824 26.2954 30.0583 26.3534C30.1342 26.4115 30.1889 26.4929 30.2139 26.5852C33.0914 37.2216 35.9673 47.8563 38.8414 58.4893C39.4284 60.6652 40.0255 62.8511 40.6125 65.0321C40.6911 65.335 40.701 65.6517 40.6415 65.9591C40.5819 66.2664 40.4545 66.5565 40.2684 66.8082Z" fill="#FFE5B3"/>
    <path d="M22.5576 18.5092L31.3926 27.2986C31.5433 27.4482 31.747 27.5321 31.9593 27.5321C32.1716 27.5321 32.3753 27.4482 32.526 27.2986L41.3104 18.5041C41.8164 17.9981 36.9435 13.1151 31.6506 13.3529C25.9428 13.6363 22.8562 18.0285 22.5576 18.5092Z" stroke="#4D2C19" stroke-width="3.04113" stroke-miterlimit="10" stroke-linecap="round"/>
    <path d="M41.9991 68.559L32.6784 81.5079C32.5663 81.6628 32.4186 81.7884 32.2476 81.874C32.0767 81.9597 31.8876 82.0028 31.6964 81.9999C31.5052 81.9969 31.3176 81.9479 31.1494 81.8569C30.9812 81.766 30.8374 81.6358 30.7303 81.4775C27.7617 77.001 24.7846 72.5278 21.7992 68.058C21.6372 67.8162 21.5283 67.5428 21.4795 67.2559C21.4306 66.969 21.443 66.675 21.5158 66.3932C22.0589 64.3388 22.597 62.2844 23.13 60.23C25.8523 49.8534 28.5713 39.4733 31.2869 29.0899C31.3098 28.9979 31.3629 28.9163 31.4376 28.8579C31.5123 28.7995 31.6044 28.7678 31.6993 28.7678C31.7941 28.7678 31.8862 28.7995 31.9609 28.8579C32.0356 28.9163 32.0887 28.9979 32.1117 29.0899C34.9352 39.5239 37.7571 49.9596 40.5772 60.397C41.1541 62.5324 41.736 64.6779 42.3179 66.8132C42.3979 67.1096 42.4108 67.4201 42.3557 67.7221C42.3005 68.0241 42.1787 68.31 41.9991 68.559Z" stroke="#4D2C19" stroke-width="3.04113" stroke-miterlimit="10" stroke-linecap="round"/>
    <path d="M61.9308 31.8072C61.9294 38.2379 59.8496 44.4958 56.0014 49.648C52.1532 54.8002 46.7429 58.5706 40.5771 60.397C37.7536 49.9596 34.9317 39.5239 32.1115 29.0899C32.0886 28.9979 32.0355 28.9162 31.9608 28.8579C31.886 28.7995 31.7939 28.7678 31.6991 28.7678C31.6043 28.7678 31.5122 28.7995 31.4375 28.8579C31.3628 28.9162 31.3097 28.9979 31.2867 29.0899C28.588 39.4666 25.869 49.8466 23.1298 60.23C17.8792 58.5688 13.1913 55.4854 9.5864 51.3221C5.98146 47.1587 3.60033 42.0781 2.70716 36.6438C1.81399 31.2095 2.44371 25.634 4.52645 20.5358C6.60918 15.4376 10.0635 11.0161 14.5063 7.76167C18.949 4.50724 24.2064 2.54718 29.6953 2.09892C35.1842 1.65066 40.69 2.73173 45.6019 5.2222C50.5138 7.71266 54.6398 11.5152 57.5221 16.2079C60.4044 20.9006 61.9304 26.3 61.9308 31.8072Z" stroke="#4D2C19" stroke-width="3.04113" stroke-miterlimit="10" stroke-linecap="round"/>
  </svg>