<svg xmlns="http://www.w3.org/2000/svg" width="136" height="67" viewBox="0 0 136 67" fill="none">
  <path opacity="0.5" d="M120.434 31.9061L133.302 31.1885" stroke="#FFCC66" stroke-width="5" stroke-miterlimit="10" stroke-linecap="round"/>
  <path opacity="0.5" d="M117.513 40.0996L129.114 45.7154" stroke="#FFCC66" stroke-width="5" stroke-miterlimit="10" stroke-linecap="round"/>
  <path opacity="0.5" d="M116.625 24.0813L127.529 17.2114" stroke="#FFCC66" stroke-width="5" stroke-miterlimit="10" stroke-linecap="round"/>
  <path d="M119.812 33.3343L132.681 32.6167" stroke="#4D2C19" stroke-width="3" stroke-miterlimit="10" stroke-linecap="round"/>
  <path d="M116.891 41.5281L128.492 47.1508" stroke="#4D2C19" stroke-width="3" stroke-miterlimit="10" stroke-linecap="round"/>
  <path d="M116.003 25.5168L126.907 18.6399" stroke="#4D2C19" stroke-width="3" stroke-miterlimit="10" stroke-linecap="round"/>
  <g opacity="0.5">
    <path d="M72.6221 34.658H83.6656C86.2574 26.9938 93.7126 0.72654 94.918 0.517517C99.1611 -0.179227 109.257 20.0264 106.379 40.1274C105.961 43.0677 103.314 61.3085 93.1413 63.8167C90.5076 64.426 87.7427 64.0674 85.3517 62.8065C85.3517 62.8065 72.8103 61.413 70.72 24.2974L4.87769 30.2755" fill="#FFCC66"/>
    <path d="M93.8388 0.726318L6.91999 25.8718C6.91999 25.8718 1.39481 32.895 6.91999 40.6219L87.4706 63.6702" fill="#FFE5B3"/>
    <path d="M68.0026 58.1035C68.0026 58.1035 59.6416 47.297 60.192 34.0171L68.0026 58.1035Z" fill="#FFCC66"/>
    <path d="M53.8121 52.7733C53.8121 52.7733 51.0251 45.8059 51.0251 40.2319L53.8121 52.7733Z" fill="#FFCC66"/>
    <path opacity="0.5" d="M51.3725 14.8147L70.1846 9.24072C69.0187 12.2646 67.8575 15.2838 66.7009 18.2984L45.1018 21.0854L51.3725 14.8147Z" fill="#FFCC66"/>
  </g>
  <path opacity="0.5" d="M68.4422 36.0515H79.4856C82.0775 28.3874 89.5327 2.1201 90.738 1.91107C94.9812 1.21433 105.077 21.4199 102.199 41.521C101.781 44.4613 99.1338 62.702 88.9613 65.2103C86.3277 65.8195 83.5628 65.4609 81.1717 64.2C81.1717 64.2 68.6303 62.8065 66.5401 25.691L0.697754 31.669" fill="#FFE5B3"/>
  <path d="M72.2735 35.7173H83.3169C85.9088 28.0531 93.364 1.77193 94.5693 1.57684C98.8125 0.880099 108.908 21.0857 106.031 41.1868C105.613 44.127 102.965 62.3678 92.7926 64.8761C90.1573 65.481 87.3924 65.1175 85.003 63.8519C85.003 63.8519 72.4616 62.4584 70.3714 25.3428L4.52905 31.3209" stroke="#4D2C19" stroke-width="3" stroke-miterlimit="10" stroke-linecap="round"/>
  <path d="M93.492 1.77197L6.57313 26.9175C6.57313 26.9175 1.07582 33.9616 6.57313 41.6676L87.0959 64.7159" stroke="#4D2C19" stroke-width="3" stroke-miterlimit="10" stroke-linecap="round"/>
  <path d="M67.6561 59.1485C67.6561 59.1485 59.2952 48.342 59.8456 35.062" stroke="#4D2C19" stroke-width="3" stroke-miterlimit="10" stroke-linecap="round"/>
  <path d="M53.4615 53.8322C53.4615 53.8322 50.6746 46.8647 50.6746 41.2908" stroke="#4D2C19" stroke-width="3" stroke-miterlimit="10" stroke-linecap="round"/>
  <path d="M81.5913 5.21362L76.4563 18.9952" stroke="#4D2C19" stroke-width="3" stroke-miterlimit="10" stroke-linecap="round"/>
  <path d="M51.0231 14.8459L69.8352 9.27197C68.6694 12.2958 67.5081 15.3151 66.3515 18.3297L44.7524 21.1166L51.0231 14.8459Z" fill="#4D2C19"/>
</svg>