<svg xmlns="http://www.w3.org/2000/svg" width="122" height="69" viewBox="0 0 122 69" fill="none">
    <path opacity="0.5" d="M25.1875 29.8067L60.9412 41.48L103.242 28.3757V31.357L64.9661 46.3296C62.3847 47.0298 59.6648 47.0115 57.0927 46.2766L25.0764 33.1458C25.1287 32.0327 25.1548 30.9197 25.1875 29.8067Z" fill="#FFCC66"/>
    <path opacity="0.5" d="M110.359 22.0755L58.6688 39.2542C58.3718 39.3537 58.0511 39.3537 57.7541 39.2542L5.61324 22.6585C5.3105 22.5576 5.04742 22.3614 4.86232 22.0984C4.67721 21.8354 4.57975 21.5194 4.58413 21.1963C4.5885 20.8732 4.69448 20.56 4.88664 20.3023C5.0788 20.0445 5.34709 19.8557 5.65245 19.7633L58.1396 3.32665C58.4243 3.23389 58.7305 3.23389 59.0151 3.32665L110.359 19.1803C110.663 19.277 110.928 19.4696 111.117 19.7299C111.306 19.9903 111.407 20.3049 111.407 20.6279C111.407 20.9509 111.306 21.2655 111.117 21.5259C110.928 21.7862 110.663 21.9788 110.359 22.0755Z" fill="#FFE5B3"/>
    <path opacity="0.5" d="M23.3624 29.4552L57.8877 40.7773C58.1791 40.87 58.4915 40.87 58.7829 40.7773L97.2743 28.0043C97.4838 27.9292 97.708 27.906 97.9281 27.9368C98.1482 27.9675 98.3579 28.0512 98.5396 28.181C98.7212 28.3107 98.8696 28.4826 98.9723 28.6824C99.0751 28.8822 99.1291 29.104 99.13 29.3293V52.1856C99.1246 52.4185 99.0617 52.6463 98.947 52.8481C97.7448 54.8357 90.087 65.0912 58.4366 64.0444C26.7861 62.9977 22.2059 55.1404 21.5982 53.6034C21.5432 53.453 21.5166 53.2934 21.5198 53.133V30.7603C21.5244 30.5383 21.5807 30.3205 21.6839 30.1247C21.7872 29.9288 21.9346 29.7605 22.1142 29.6333C22.2937 29.5061 22.5004 29.4237 22.7172 29.3927C22.9341 29.3618 23.1552 29.3832 23.3624 29.4552Z" fill="#FFE5B3"/>
    <path opacity="0.5" d="M62.3937 13.0723L42.1842 19.81C42.0859 19.8452 42.0012 19.9113 41.9425 19.9987C41.8838 20.0861 41.8541 20.1902 41.8577 20.2958C41.8614 20.4015 41.8982 20.5032 41.9627 20.5862C42.0273 20.6692 42.1163 20.7292 42.2168 20.7574L61.3482 25.7394C61.4168 25.7558 61.4881 25.7571 61.5573 25.7434C61.6264 25.7297 61.692 25.7012 61.7494 25.6599C61.8069 25.6185 61.8551 25.5652 61.8906 25.5035C61.9262 25.4419 61.9485 25.3732 61.9559 25.3021L63.0274 13.5824C63.0348 13.5014 63.0221 13.4197 62.9905 13.3448C62.9589 13.27 62.9095 13.2043 62.8466 13.1536C62.7837 13.103 62.7093 13.0691 62.6303 13.0549C62.5512 13.0407 62.4699 13.0467 62.3937 13.0723Z" fill="#FFCC66"/>
    <path d="M5.13086 23.4932V67.0991" stroke="#4D2C19" stroke-width="3.53883" stroke-miterlimit="10" stroke-linecap="round"/>
    <path d="M118.355 23.0161L61.8562 41.5198C61.5312 41.6258 61.1815 41.6258 60.8565 41.5198L3.66491 23.0228C3.33169 22.9168 3.04053 22.7058 2.83381 22.4204C2.6271 22.135 2.51562 21.7902 2.51562 21.4361C2.51562 21.082 2.6271 20.7371 2.83381 20.4518C3.04053 20.1664 3.33169 19.9553 3.66491 19.8494L61.0656 2.17381C61.3783 2.07455 61.7134 2.07455 62.0261 2.17381L118.336 19.8494C118.667 19.9549 118.957 20.1643 119.163 20.4476C119.37 20.7309 119.482 21.0733 119.484 21.4255C119.487 21.7777 119.378 22.1216 119.175 22.4074C118.973 22.6933 118.685 22.9065 118.355 23.0161Z" stroke="#4D2C19" stroke-width="3.53883" stroke-miterlimit="10" stroke-linecap="round"/>
    <path d="M25.1911 30.1516L60.7815 42.2224C61.0803 42.3248 61.404 42.3248 61.7028 42.2224L101.383 28.6013C101.601 28.5264 101.833 28.5053 102.061 28.5397C102.288 28.5741 102.504 28.6631 102.69 28.7992C102.877 28.9352 103.029 29.1145 103.133 29.3221C103.238 29.5296 103.292 29.7595 103.291 29.9926V54.3528C103.292 54.6084 103.227 54.8597 103.102 55.0815C101.867 57.2347 93.9544 68.1395 61.3631 67.0066C28.7717 65.8737 23.9954 57.5262 23.3747 55.8898C23.3131 55.7317 23.282 55.563 23.2832 55.3929V31.5428C23.2839 31.3103 23.339 31.0812 23.4439 30.8744C23.5489 30.6676 23.7007 30.489 23.8869 30.3532C24.073 30.2175 24.2883 30.1284 24.5151 30.0933C24.7418 30.0583 24.9735 30.0782 25.1911 30.1516Z" stroke="#4D2C19" stroke-width="3.53883" stroke-miterlimit="10" stroke-linecap="round"/>
    <path d="M65.3292 14.258L45.1263 20.9824C45.0245 21.0125 44.9351 21.0753 44.8714 21.1613C44.8078 21.2473 44.7734 21.3519 44.7734 21.4594C44.7734 21.5669 44.8078 21.6715 44.8714 21.7575C44.9351 21.8435 45.0245 21.9063 45.1263 21.9364L64.2773 26.9449C64.3455 26.9636 64.4169 26.9669 64.4866 26.9545C64.5562 26.9422 64.6223 26.9145 64.6802 26.8734C64.7382 26.8324 64.7865 26.7789 64.8219 26.7169C64.8572 26.6548 64.8788 26.5857 64.8849 26.5143L65.963 14.7946C65.9717 14.7123 65.9602 14.6291 65.9296 14.5523C65.899 14.4756 65.8502 14.4076 65.7875 14.3546C65.7249 14.3015 65.6502 14.2649 65.5703 14.2481C65.4904 14.2312 65.4076 14.2346 65.3292 14.258Z" stroke="#4D2C19" stroke-width="3.53883" stroke-miterlimit="10" stroke-linecap="round"/>
  </svg>