<svg xmlns="http://www.w3.org/2000/svg" width="30" height="30" viewBox="0 0 48 37" fill="none">
    <rect x="0.854004" y="0.25" width="45.625" height="34.9792" rx="4.5625" fill="#FFE3AD"/>
    <path d="M44.3169 4.37669L44.4455 4.24159L44.2618 4.20927C44.2476 4.20677 44.2331 4.20412 44.2183 4.20141C44.1348 4.18612 44.0414 4.16902 43.9435 4.16902H6.42958C6.33168 4.16902 6.23825 4.18612 6.15474 4.20141C6.13992 4.20412 6.12541 4.20677 6.11125 4.20927L5.92756 4.24159L6.05614 4.37669L24.1319 23.3693L24.1319 23.3694C24.3897 23.64 24.7938 23.768 25.1865 23.768C25.5793 23.768 25.9834 23.64 26.2411 23.3694L26.2412 23.3693L44.3169 4.37669ZM4.60098 5.83973L4.48098 5.71363L4.43249 5.88082C4.35229 6.15737 4.3018 6.44964 4.3018 6.76753V31.7527C4.3018 32.0924 4.35687 32.4253 4.44894 32.7195L4.49704 32.8731L4.61347 32.7619L17.9524 20.0156L18.0246 19.9467L17.9558 19.8744L4.60098 5.83973ZM45.9406 5.88082L45.8921 5.71362L45.7721 5.83973L32.4172 19.8744L32.3485 19.9467L32.4206 20.0156L45.7596 32.7619L45.876 32.8731L45.9241 32.7195C46.0162 32.4253 46.0712 32.0924 46.0712 31.7527V6.76753C46.0712 6.44963 46.0207 6.15737 45.9406 5.88082ZM19.54 21.5335L19.4709 21.461L19.3985 21.5301L6.17042 34.1594L6.01459 34.3082L6.22881 34.3312C6.24322 34.3327 6.25967 34.3349 6.27749 34.3374C6.32302 34.3436 6.37747 34.3511 6.42958 34.3511H43.9435C43.9956 34.3511 44.05 34.3436 44.0956 34.3374C44.1134 34.3349 44.1298 34.3327 44.1442 34.3312L44.3585 34.3082L44.2026 34.1594L30.9745 21.5301L30.9021 21.461L30.8331 21.5335L27.4112 25.1251L27.4112 25.1251C26.1355 26.4645 24.2375 26.4645 22.9618 25.1251L22.9618 25.1251L19.54 21.5335ZM2.47402 6.76753C2.47402 4.0555 4.27404 1.87051 6.42958 1.87051H43.9435C46.099 1.87051 47.899 4.0555 47.899 6.76753V31.7527C47.899 34.4647 46.099 36.6497 43.9435 36.6497H6.42958C4.27404 36.6497 2.47402 34.4647 2.47402 31.7527V6.76753Z" fill="#4D2C19" stroke="#FFE3AD" stroke-width="0.2"/>
  </svg>