<svg xmlns="http://www.w3.org/2000/svg" width="40" height="40" viewBox="0 0 41 55" fill="none">
    <path opacity="0.5" d="M19.3007 18.413L18.1796 19.1559L9.38371 7.87464L9.95818 7.49502C10.4324 7.17748 10.965 6.95239 11.5254 6.83265C12.0858 6.71291 12.663 6.70088 13.2239 6.79726C13.7848 6.89363 14.3183 7.0965 14.7939 7.39425C15.2695 7.69201 15.6778 8.07879 15.9954 8.53239L20.1154 14.3802C20.5567 15.0096 20.7188 15.7873 20.5661 16.5431C20.4134 17.2989 19.9585 17.9713 19.3007 18.413Z" fill="#FFCC66"/>
    <path opacity="0.5" d="M37.7861 45.4617L36.6693 46.2035L27.8723 34.9182L28.4457 34.5344C28.9201 34.2174 29.4527 33.9928 30.013 33.8734C30.5733 33.7539 31.1503 33.742 31.711 33.8384C32.2718 33.9347 32.8052 34.1374 33.2808 34.4348C33.7564 34.7323 34.1649 35.1186 34.4829 35.5718L38.6126 41.4214C38.8317 41.734 38.9842 42.0866 39.0613 42.4588C39.1383 42.8311 39.1385 43.2157 39.0618 43.5909C38.985 43.9661 38.8329 44.3245 38.614 44.6455C38.3951 44.9664 38.1138 45.2438 37.7861 45.4617Z" fill="#FFCC66"/>
    <path opacity="0.5" d="M16.3529 17.472L15.2318 18.2149C14.2736 18.8545 13.61 19.831 13.3869 20.9297C13.1637 22.0284 13.3992 23.1594 14.0417 24.074L19.8918 32.3788C20.2103 32.832 20.6192 33.2183 21.0953 33.5156C21.5713 33.813 22.1051 34.0156 22.6662 34.1118C23.2272 34.208 23.8046 34.1961 24.3652 34.0765C24.9257 33.9569 25.4586 33.7322 25.9333 33.415L27.0802 32.6652C27.404 32.4487 27.7675 32.2953 28.1499 32.2136C28.5323 32.1319 28.9262 32.1236 29.309 32.1891C29.6918 32.2546 30.056 32.3926 30.3809 32.5954C30.7057 32.7981 30.9848 33.0615 31.2023 33.3705L36.5177 40.9159C36.7349 41.2235 36.8865 41.5707 36.9636 41.9375C37.0408 42.3044 37.042 42.6838 36.9673 43.054C36.8926 43.4243 36.7434 43.778 36.5283 44.095C36.3131 44.412 36.0362 44.6861 35.7134 44.9016L31.8944 47.456C31.2408 47.8965 30.4787 48.1586 29.6902 48.2139C28.9017 48.2692 28.1167 48.1157 27.4198 47.7699C20.5455 44.3323 14.6771 39.3055 10.3253 33.127C5.97355 26.9486 3.2704 19.8057 2.45113 12.3202C2.36978 11.5628 2.50388 10.7941 2.83902 10.097C3.17417 9.39985 3.69771 8.80056 4.35335 8.36343L7.01699 6.57883C7.9755 5.93976 9.14989 5.69002 10.282 5.88455C11.4141 6.07908 12.4112 6.70194 13.0542 7.6162L17.1742 13.464C17.6057 14.0928 17.7613 14.8649 17.6078 15.6145C17.4542 16.364 17.0036 17.031 16.3529 17.472Z" fill="#FFCC66"/>
    <path d="M19.3007 18.413L18.1796 19.1559L9.38371 7.87464L9.95818 7.49502C10.4324 7.17748 10.965 6.95239 11.5254 6.83265C12.0858 6.71291 12.663 6.70088 13.2239 6.79726C13.7848 6.89363 14.3183 7.0965 14.7939 7.39425C15.2695 7.69201 15.6778 8.07879 15.9954 8.53239L20.1154 14.3802C20.5567 15.0096 20.7188 15.7873 20.5661 16.5431C20.4134 17.2989 19.9585 17.9713 19.3007 18.413Z" stroke="#4D2C19" stroke-width="1.76315" stroke-miterlimit="10"/>
    <path d="M38.6625 45.8333L34.8435 48.3877C34.1906 48.8282 33.4292 49.0901 32.6413 49.1452C31.8535 49.2004 31.0692 49.0466 30.3732 48.7005C23.4951 45.2674 17.6233 40.242 13.2702 34.063C8.91719 27.884 6.21525 20.7391 5.40022 13.2519C5.31788 12.4944 5.45152 11.7255 5.78675 11.0282C6.12198 10.3308 6.64607 9.73156 7.30242 9.2951L9.39271 7.89429L18.1865 19.1849C17.7112 19.5009 17.3032 19.9033 16.986 20.369C16.6688 20.8348 16.4486 21.3548 16.338 21.8991C16.2274 22.4434 16.2287 23.0014 16.3417 23.5411C16.4547 24.0808 16.6771 24.5915 16.9964 25.044L22.8465 33.3488C23.1641 33.8024 23.5724 34.1892 24.048 34.4869C24.5236 34.7847 25.0572 34.9876 25.618 35.0839C26.1789 35.1803 26.7561 35.1683 27.3165 35.0486C27.877 34.9289 28.4095 34.7037 28.8838 34.3862L30.0307 33.6364C30.3547 33.4199 30.7185 33.2666 31.1012 33.1851C31.4839 33.1036 31.878 33.0956 32.261 33.1615C32.6439 33.2274 33.0082 33.3659 33.333 33.5691C33.6578 33.7724 33.9367 34.0363 34.1538 34.3459L39.4681 41.8871C39.8928 42.5059 40.0462 43.2658 39.8956 44.0037C39.745 44.7415 39.3022 45.3984 38.6625 45.8333Z" stroke="#4D2C19" stroke-width="1.76315" stroke-miterlimit="10"/>
    <path d="M28.415 35.25L37.4728 46.6159" stroke="#4D2C19" stroke-width="1.76315" stroke-miterlimit="10"/>
  </svg>